<svg xmlns="http://www.w3.org/2000/svg" width="1200" height="900" viewBox="0 0 1200 900" role="img" aria-label="MCH Projects free road map ad">
  <defs>
    <pattern id="grid" width="36" height="36" patternUnits="userSpaceOnUse">
      <path d="M36 0H0V36" fill="none" stroke="#E4E7EF" stroke-width="1"/>
    </pattern>
    <filter id="softShadow" x="-20%" y="-20%" width="140%" height="140%">
      <feDropShadow dx="0" dy="14" stdDeviation="16" flood-color="#0E1726" flood-opacity="0.11"/>
    </filter>
  </defs>

  <rect width="1200" height="900" fill="#F6F7FA"/>
  <rect width="1200" height="900" fill="url(#grid)" opacity="0.42"/>
  <rect x="48" y="48" width="1104" height="804" fill="#FFFFFF" stroke="#E4E7EF" stroke-width="2" filter="url(#softShadow)"/>

  <g transform="translate(88 84)">
    <rect x="0" y="0" width="38" height="38" rx="9" fill="#0E1726"/>
    <rect x="9" y="9" width="9" height="9" rx="2" fill="#FFFFFF" opacity="0.45"/>
    <rect x="22" y="9" width="9" height="9" rx="2" fill="#FFFFFF" opacity="0.7"/>
    <rect x="9" y="22" width="9" height="9" rx="2" fill="#FFFFFF" opacity="0.7"/>
    <rect x="22" y="22" width="9" height="9" rx="2" fill="#FFFFFF"/>
    <text x="54" y="26" fill="#0E1726" font-family="Arial, Helvetica, sans-serif" font-size="24" font-weight="800">MCH Projects</text>
  </g>

  <g transform="translate(88 164)">
    <rect x="0" y="0" width="186" height="36" fill="#EEF2FE" stroke="#C8D0DE"/>
    <text x="17" y="24" fill="#1E4DD8" font-family="Arial, Helvetica, sans-serif" font-size="13" font-weight="800" letter-spacing="2.2">FREE ROAD MAP</text>

    <text x="0" y="120" fill="#0E1726" font-family="Georgia, 'Times New Roman', serif" font-size="72" font-weight="700">Find the first</text>
    <text x="0" y="198" fill="#1E4DD8" font-family="Georgia, 'Times New Roman', serif" font-size="72" font-weight="700">system worth</text>
    <text x="0" y="276" fill="#0E1726" font-family="Georgia, 'Times New Roman', serif" font-size="72" font-weight="700">fixing.</text>

    <text x="3" y="338" fill="#56617A" font-family="Arial, Helvetica, sans-serif" font-size="27" font-weight="500">A plain-English map of the leaks,</text>
    <text x="3" y="376" fill="#56617A" font-family="Arial, Helvetica, sans-serif" font-size="27" font-weight="500">handoffs, and follow-ups slowing</text>
    <text x="3" y="414" fill="#56617A" font-family="Arial, Helvetica, sans-serif" font-size="27" font-weight="500">your service business down.</text>

    <g transform="translate(0 476)" font-family="Arial, Helvetica, sans-serif">
      <rect x="0" y="0" width="196" height="50" fill="#EEF2FE" stroke="#C8D0DE"/>
      <text x="22" y="32" fill="#0E1726" font-size="18" font-weight="800">Leads</text>
      <circle cx="166" cy="25" r="7" fill="#1E4DD8"/>

      <rect x="216" y="0" width="196" height="50" fill="#FFFFFF" stroke="#C8D0DE"/>
      <text x="238" y="32" fill="#0E1726" font-size="18" font-weight="800">Intake</text>
      <circle cx="382" cy="25" r="7" fill="#E2A33A"/>

      <rect x="0" y="66" width="196" height="50" fill="#FFFFFF" stroke="#C8D0DE"/>
      <text x="22" y="98" fill="#0E1726" font-size="18" font-weight="800">Follow-up</text>
      <circle cx="166" cy="91" r="7" fill="#E2A33A"/>

      <rect x="216" y="66" width="196" height="50" fill="#EEF2FE" stroke="#C8D0DE"/>
      <text x="238" y="98" fill="#0E1726" font-size="18" font-weight="800">Owner view</text>
      <circle cx="382" cy="91" r="7" fill="#1E4DD8"/>
    </g>

    <rect x="0" y="632" width="336" height="58" fill="#1E4DD8"/>
    <text x="26" y="670" fill="#FFFFFF" font-family="Arial, Helvetica, sans-serif" font-size="22" font-weight="900">Get the free road map</text>
  </g>

  <g transform="translate(626 142)">
    <rect x="0" y="0" width="474" height="600" fill="#FFFFFF" stroke="#E4E7EF" stroke-width="2"/>
    <rect x="24" y="24" width="426" height="552" fill="#F6F7FA" stroke="#E4E7EF"/>

    <g transform="translate(54 58)" font-family="Arial, Helvetica, sans-serif">
      <text x="0" y="0" fill="#8A93A6" font-size="13" font-weight="800" letter-spacing="2">MANUAL AND SCATTERED</text>
      <text x="250" y="0" fill="#1E4DD8" font-size="13" font-weight="800" letter-spacing="2">SYSTEMISED</text>
    </g>

    <line x1="236" y1="82" x2="236" y2="528" stroke="#DDE3EF" stroke-width="2" stroke-dasharray="6 8"/>
    <path d="M204 304H276" stroke="#1E4DD8" stroke-width="3"/>
    <path d="M276 304l-13-11v22z" fill="#1E4DD8"/>

    <g stroke-linecap="round">
      <path d="M96 132Q151 178 111 232" stroke="#C8D0DE" stroke-width="3" fill="none" stroke-dasharray="5 8"/>
      <path d="M142 298Q76 353 122 422" stroke="#C8D0DE" stroke-width="3" fill="none" stroke-dasharray="5 8"/>
      <path d="M172 170Q119 248 182 330" stroke="#C8D0DE" stroke-width="3" fill="none" stroke-dasharray="5 8"/>
    </g>

    <g font-family="Arial, Helvetica, sans-serif" font-size="15" font-weight="800" fill="#56617A">
      <g transform="rotate(-12 90 126)">
        <rect x="58" y="104" width="78" height="46" rx="6" fill="#FFFFFF" stroke="#8A93A6" stroke-width="2"/>
        <text x="75" y="133">Inbox</text>
      </g>
      <g transform="rotate(11 155 210)">
        <rect x="112" y="188" width="86" height="46" rx="6" fill="#FFFFFF" stroke="#8A93A6" stroke-width="2"/>
        <text x="127" y="217">Sheet</text>
      </g>
      <g transform="rotate(-17 104 338)">
        <rect x="62" y="316" width="84" height="46" rx="6" fill="#FFFFFF" stroke="#8A93A6" stroke-width="2"/>
        <text x="78" y="345">Quote</text>
      </g>
      <g transform="rotate(9 164 438)">
        <rect x="118" y="416" width="92" height="46" rx="6" fill="#FFFFFF" stroke="#8A93A6" stroke-width="2"/>
        <text x="132" y="445">Follow</text>
      </g>
    </g>

    <g transform="translate(292 122)" stroke="#4C74E6" stroke-width="3" fill="none" stroke-linecap="round" stroke-linejoin="round">
      <path d="M24 30H104V110"/>
      <path d="M24 110H104"/>
      <path d="M24 190H104V110"/>
      <path d="M104 110H158"/>
      <path d="M158 110V206"/>
      <path d="M24 270H158V206"/>
    </g>
    <g fill="#FFFFFF" stroke="#1E4DD8" stroke-width="3">
      <rect x="298" y="136" width="48" height="36" rx="7"/>
      <rect x="298" y="216" width="48" height="36" rx="7"/>
      <rect x="298" y="296" width="48" height="36" rx="7"/>
      <rect x="298" y="376" width="48" height="36" rx="7"/>
      <rect x="378" y="216" width="48" height="36" rx="7" fill="#EEF2FE"/>
      <rect x="432" y="310" width="48" height="42" rx="8" fill="#1E4DD8" stroke="#1E4DD8"/>
    </g>
    <circle cx="456" cy="331" r="8" fill="#E2A33A"/>

    <g transform="translate(302 468)">
      <rect x="0" y="0" width="158" height="58" fill="#0E1726" rx="4"/>
      <text x="17" y="23" fill="#E2A33A" font-family="Arial, Helvetica, sans-serif" font-size="13" font-weight="900" letter-spacing="1.8">ROAD MAP</text>
      <text x="17" y="43" fill="#FFFFFF" font-family="Arial, Helvetica, sans-serif" font-size="14" font-weight="700">first build sequence</text>
    </g>

    <g transform="translate(76 492)" stroke="#0E1726" stroke-width="4" stroke-linecap="round" stroke-linejoin="round">
      <circle cx="44" cy="25" r="17" fill="#EEF2FE"/>
      <path d="M44 45v44"/>
      <path d="M18 72h94"/>
      <path d="M22 102h116"/>
      <path d="M84 72v30"/>
      <rect x="72" y="48" width="58" height="40" rx="5" fill="#FFFFFF"/>
      <path d="M84 62h34M84 75h24"/>
    </g>
  </g>
</svg>
